<svg width="150" height="50" viewBox="0 0 150 50" fill="none" xmlns="http://www.w3.org/2000/svg">
<path d="M65.7061 40.625V9.45312H77.5068C78.249 9.45312 79.1029 9.49766 80.0678 9.58672C81.0475 9.67578 82.0342 9.86133 83.0287 10.1434C84.0381 10.4105 84.9662 10.8262 85.8123 11.3902C86.6584 11.9395 87.3412 12.6742 87.8607 13.5945C88.3803 14.5148 88.6396 15.6727 88.6396 17.068C88.6396 18.6414 88.3576 19.9477 87.7936 20.9867C87.2295 22.0109 86.5396 22.7902 85.7232 23.3246C84.9217 23.8441 84.142 24.141 83.385 24.2152C84.0678 24.2746 84.7881 24.4602 85.5451 24.7719C86.317 25.0836 87.0365 25.5363 87.7045 26.1301C88.3725 26.7238 88.9147 27.4809 89.3303 28.4012C89.7607 29.3215 89.9756 30.4273 89.9756 31.7188C89.9756 33.7078 89.5451 35.3629 88.6842 36.684C87.8381 38.0051 86.6951 38.9922 85.2553 39.6453C83.8154 40.2984 82.2123 40.625 80.4459 40.625H65.7061ZM74.0334 34.6133H77.0615C77.8928 34.6133 78.6498 34.5168 79.3326 34.3238C80.0303 34.116 80.5795 33.7598 80.9803 33.2551C81.3959 32.7504 81.6037 32.0305 81.6037 31.0953C81.6037 30.0414 81.3959 29.2621 80.9803 28.7574C80.5646 28.2527 80.0084 27.9262 79.3107 27.7777C78.6279 27.6145 77.8631 27.5328 77.017 27.5328H74.0334V34.6133ZM74.0334 21.5656H76.349C77.2396 21.5656 77.9967 21.4766 78.6201 21.2984C79.2584 21.1055 79.7412 20.7789 80.0678 20.3188C80.4092 19.8586 80.5795 19.2203 80.5795 18.4039C80.5795 17.8398 80.4904 17.3723 80.3123 17.0012C80.1342 16.6301 79.867 16.3332 79.5107 16.1105C79.1545 15.873 78.7092 15.7098 78.1748 15.6207C77.6553 15.5168 77.0467 15.4648 76.349 15.4648H74.0334V21.5656ZM95.3365 40.625V34.6133L107.761 15.4648H95.6928V9.45312H115.999V15.4648L103.486 34.6133H116.444V40.625H95.3365ZM124.3 40.625V34.6133L136.724 15.4648H124.656V9.45312H144.962V15.4648L132.449 34.6133H145.408V40.625H124.3Z" fill="black"/>
<mask id="mask0_433_3423" style="mask-type:luminance" maskUnits="userSpaceOnUse" x="33" y="9" width="28" height="32">
<path d="M60.2069 9.375H33.8125V40.625H60.2069V9.375Z" fill="white"/>
</mask>
<g mask="url(#mask0_433_3423)">
<path fill-rule="evenodd" clip-rule="evenodd" d="M52.6619 38.8985C49.0838 40.831 44.787 41.25 41.0619 39.6001C40.5894 39.391 40.1482 39.1554 39.7358 38.8985C36.9513 37.1643 35.4899 34.4588 34.7332 32.3221C33.9301 30.0539 33.7888 25.8181 33.8155 21.7086C33.8357 18.6116 33.9512 15.5863 33.9512 13.5298H42.0229C42.0229 17.1361 42.0229 20.7428 42.0229 24.3495C42.137 27.4806 42.9034 31.2425 47.1159 32.2618C52.8031 33.6377 57.2978 27.7213 55.8301 22.0799C54.3624 16.4386 49.6384 14.3288 49.6384 14.3288C54.2031 16.6897 58.1227 26.5313 52.2109 27.951C49.0443 28.7117 47.6003 26.5525 46.9097 23.8607C45.3733 17.8711 47.685 12.4481 39.8236 9.3751C45.8172 9.3622 50.1952 10.6587 53.3211 12.6767C61.3421 17.8554 61.1219 27.7845 58.8116 32.5369C58.604 32.9639 58.376 33.3769 58.1292 33.7756C56.7734 35.9654 54.8523 37.7157 52.6619 38.8985Z" fill="url(#paint0_linear_433_3423)"/>
</g>
<path d="M2.046 40V9.2H10.274V21.036H18.37V9.2H26.598V40H18.37V26.932H10.274V40H2.046Z" fill="black"/>
<defs>
<linearGradient id="paint0_linear_433_3423" x1="60.2071" y1="41.5361" x2="27.3028" y2="18.7933" gradientUnits="userSpaceOnUse">
<stop stop-color="#9D1EBE"/>
<stop offset="1" stop-color="#FF7979"/>
</linearGradient>
</defs>
</svg>
