<svg width="31" height="30" viewBox="0 0 31 30" fill="none" xmlns="http://www.w3.org/2000/svg">
<path d="M17.4444 1.01525C17.4444 0.457614 17.9945 0 18.6822 0C19.3698 0 19.92 0.452613 19.92 1.01525V5.45136C19.92 6.009 19.3698 6.46662 18.6822 6.46662C17.9945 6.46662 17.4444 6.014 17.4444 5.45136V1.01525ZM3.5934 19.5174H6.42911C6.60915 19.5174 6.75669 19.6649 6.75669 19.845V21.9405C6.75669 22.1205 6.60915 22.2681 6.42911 22.2681H3.5934C3.41335 22.2681 3.26582 22.1205 3.26582 21.9405V19.845C3.26582 19.6624 3.41335 19.5174 3.5934 19.5174ZM14.4511 13.5459H17.2868C17.3743 13.5459 17.4519 13.5809 17.5119 13.6359C16.3991 14.3311 15.4339 15.2363 14.6687 16.2991H14.4511C14.2711 16.2991 14.1235 16.1515 14.1235 15.9715V13.876C14.1235 13.6934 14.2711 13.5459 14.4511 13.5459ZM9.02225 13.5459H11.858C12.038 13.5459 12.1855 13.6934 12.1855 13.8735V15.969C12.1855 16.149 12.038 16.2966 11.858 16.2966H9.02225C8.84221 16.2966 8.69467 16.149 8.69467 15.969V13.8735C8.69467 13.6934 8.84221 13.5459 9.02225 13.5459ZM3.5934 13.5459H6.42911C6.60915 13.5459 6.75669 13.6934 6.75669 13.8735V15.969C6.75669 16.149 6.60915 16.2966 6.42911 16.2966H3.5934C3.41335 16.2966 3.26582 16.149 3.26582 15.969V13.8735C3.26582 13.6934 3.41335 13.5459 3.5934 13.5459ZM9.02225 19.5174H11.858C12.038 19.5174 12.1855 19.6649 12.1855 19.845V21.9405C12.1855 22.1205 12.038 22.2681 11.858 22.2681H9.02225C8.84221 22.2681 8.69467 22.1205 8.69467 21.9405V19.845C8.69467 19.6624 8.84221 19.5174 9.02225 19.5174ZM25.879 14.8887C28.8072 16.1015 30.7277 18.9597 30.7277 22.1455C30.7277 24.3136 29.8475 26.2791 28.4271 27.6994C27.0068 29.1198 25.0438 30 22.8732 30C20.7052 30 18.7422 29.1198 17.3193 27.6994C15.899 26.2766 15.0188 24.3136 15.0188 22.1455C15.0188 18.9847 16.9842 16.0365 19.9075 14.8362C21.7204 14.096 24.0785 14.141 25.879 14.8887ZM21.6654 21.9355C21.7629 21.828 21.883 21.7354 22.013 21.6654V18.2496C22.013 17.902 22.2956 17.6194 22.6432 17.6194C22.9907 17.6194 23.2758 17.902 23.2758 18.2496V21.6654C23.5059 21.7904 23.6959 21.978 23.8185 22.2081H26.2591C26.6091 22.2081 26.8892 22.4906 26.8892 22.8382C26.8892 23.1858 26.6066 23.4684 26.2591 23.4684H23.8185C23.5934 23.8885 23.1533 24.1735 22.6432 24.1735C22.2431 24.1735 21.8855 23.996 21.6404 23.7184C21.1878 23.2008 21.2103 22.4281 21.6654 21.9355ZM27.5369 17.6069C24.2836 14.3536 18.7972 15.2738 16.8942 19.3698C16.5041 20.2126 16.2841 21.1528 16.2841 22.143C16.2841 23.9635 17.0218 25.6114 18.2146 26.8042C19.4073 27.997 21.0553 28.7347 22.8757 28.7347C24.6962 28.7347 26.3441 27.9945 27.5369 26.8042C28.7297 25.6114 29.4674 23.9635 29.4674 22.143C29.4674 21.1103 29.2298 20.1325 28.8072 19.2623C28.4846 18.6047 28.0545 18.1245 27.5369 17.6069ZM6.33408 1.01525C6.33408 0.457614 6.88422 0 7.57189 0C8.25706 0 8.8097 0.452613 8.8097 1.01525V5.45136C8.8097 6.009 8.25706 6.46662 7.57189 6.46662C6.88672 6.46662 6.33408 6.014 6.33408 5.45136V1.01525ZM1.36284 9.69993H24.9212V4.59365C24.9212 4.4186 24.8512 4.26607 24.7387 4.15354C24.6262 4.04101 24.4661 3.97099 24.2986 3.97099H22.0405C21.6629 3.97099 21.3553 3.66342 21.3553 3.28582C21.3553 2.90823 21.6629 2.60065 22.0405 2.60065H24.2986C24.8512 2.60065 25.3488 2.82321 25.7114 3.1858C26.074 3.54839 26.2966 4.04601 26.2966 4.59865V12.7082C25.8465 12.5531 25.3838 12.4281 24.9062 12.3356V11.0678H24.9212H1.36284V24.2986C1.36284 24.4736 1.43286 24.6262 1.54539 24.7387C1.65791 24.8512 1.81795 24.9212 1.9855 24.9212H13.1808C13.3083 25.3964 13.4684 25.8615 13.6609 26.3066H1.998C1.44786 26.3066 0.947737 26.084 0.585146 25.7214C0.222556 25.3563 0 24.8612 0 24.3086V4.59865C0 4.04851 0.222556 3.55089 0.585146 3.1858C0.947737 2.82321 1.44536 2.60065 1.998 2.60065H4.4086C4.7862 2.60065 5.09377 2.90823 5.09377 3.28582C5.09377 3.66342 4.7862 3.97099 4.4086 3.97099H1.998C1.82296 3.97099 1.67042 4.04101 1.55789 4.15354C1.44536 4.26607 1.37534 4.42611 1.37534 4.59365V9.70243H1.36284V9.69993ZM10.7852 3.96849C10.4076 3.96849 10.1 3.66092 10.1 3.28332C10.1 2.90573 10.4076 2.59815 10.7852 2.59815H15.3838C15.7614 2.59815 16.069 2.90573 16.069 3.28332C16.069 3.66092 15.7614 3.96849 15.3838 3.96849H10.7852Z" fill="#8B87AB"/>
</svg>
