<svg width="30" height="30" viewBox="0 0 30 30" fill="none" xmlns="http://www.w3.org/2000/svg">
<path d="M15.0003 25.9378L22.3588 18.5793C22.4955 18.449 22.7942 18.1396 22.807 18.1263L22.813 18.1199C24.6621 16.1366 25.6804 13.5509 25.6804 10.839C25.6804 4.94999 20.8894 0.158936 15.0004 0.158936C9.11136 0.158936 4.32031 4.94999 4.32031 10.839C4.32031 13.5509 5.33865 16.1366 7.18761 18.1199L15.0003 25.9378ZM15.0004 1.18604C20.323 1.18604 24.6534 5.51633 24.6534 10.839C24.6534 13.2885 23.7341 15.6243 22.0648 17.4164C21.9781 17.5061 21.7433 17.7476 21.6465 17.8394L15.0005 24.4851L7.933 17.4131C6.26541 15.6215 5.34738 13.2872 5.34738 10.839C5.34738 5.51633 9.67761 1.18604 15.0004 1.18604Z" fill="#8B87AB"/>
<path d="M16.6463 3.75462C18.4893 3.75462 22.076 5.76979 22.076 9.46384C22.076 9.74747 22.3058 9.97737 22.5896 9.97737C22.8731 9.97737 23.1031 9.74747 23.1031 9.46384C23.1031 7.54101 22.2533 5.75832 20.7104 4.44411C19.486 3.40134 17.8908 2.72754 16.6463 2.72754C16.3628 2.72754 16.1328 2.95744 16.1328 3.24109C16.1328 3.52474 16.3628 3.75462 16.6463 3.75462Z" fill="#8B87AB"/>
<path d="M21.4454 22.6843C21.0454 22.5208 20.6145 22.3752 20.1599 22.2466L19.3186 23.0879C21.7981 23.6796 23.3268 24.7344 23.3268 25.7145C23.3268 27.1806 19.9073 28.8141 15.0002 28.8141C10.0932 28.8141 6.67355 27.1806 6.67355 25.7145C6.67355 24.7344 8.20227 23.6796 10.6817 23.0879L9.84038 22.2466C9.38587 22.3752 8.95495 22.5208 8.55503 22.6843C6.67942 23.4509 5.64648 24.527 5.64648 25.7145C5.64648 26.902 6.67943 27.9781 8.55503 28.7447C10.2849 29.4518 12.5738 29.8412 15.0002 29.8412C17.4265 29.8412 19.7155 29.4518 21.4454 28.7447C23.321 27.9782 24.3538 26.902 24.3538 25.7145C24.3538 24.527 23.321 23.4509 21.4454 22.6843Z" fill="#8B87AB"/>
<path d="M15.0294 15.7538C12.1765 15.7538 9.85547 13.4328 9.85547 10.58C9.85547 7.7272 12.1765 5.40625 15.0294 5.40625C17.8822 5.40625 20.2033 7.72718 20.2033 10.58C20.2033 13.4328 17.8822 15.7538 15.0294 15.7538ZM15.0294 6.43333C12.7428 6.43333 10.8826 8.29353 10.8826 10.58C10.8826 12.8665 12.7428 14.7267 15.0294 14.7267C17.3159 14.7267 19.1762 12.8665 19.1762 10.58C19.1762 8.29353 17.3159 6.43333 15.0294 6.43333Z" fill="#8B87AB"/>
</svg>
