<svg width="30" height="30" viewBox="0 0 30 30" fill="none" xmlns="http://www.w3.org/2000/svg">
<path d="M15.0009 20.5462C10.5038 20.565 6.74531 23.7047 5.77875 27.9112L5.76656 27.975C5.75625 28.02 5.75063 28.0716 5.75063 28.125C5.75063 28.5131 6.06563 28.8281 6.45375 28.8281C6.78844 28.8281 7.06875 28.5938 7.13906 28.2797L7.14 28.275C7.96031 24.6328 11.1684 21.9525 15.0019 21.9525C18.8353 21.9525 22.0434 24.6328 22.8534 28.2216L22.8638 28.275C22.935 28.5938 23.2144 28.8281 23.55 28.8281H23.5509C23.6044 28.8281 23.6559 28.8216 23.7056 28.8103L23.7009 28.8113C24.0197 28.74 24.2541 28.4597 24.2541 28.1241C24.2541 28.0706 24.2484 28.0191 24.2372 27.9694L24.2381 27.9741C23.2584 23.7047 19.4991 20.565 15.0047 20.5453H15.0028L15.0009 20.5462ZM8.59219 9.93937C11.0128 9.93937 12.9759 7.97719 12.9759 5.55562C12.9759 3.13406 11.0138 1.17188 8.59219 1.17188C6.17156 1.17188 4.20844 3.13406 4.20844 5.55562C4.21125 7.97531 6.17344 9.93656 8.59219 9.93937ZM8.59219 2.57812C10.2366 2.57812 11.5697 3.91125 11.5697 5.55562C11.5697 7.2 10.2366 8.53313 8.59219 8.53313C6.94781 8.53313 5.61469 7.2 5.61469 5.55562C5.61656 3.91219 6.94969 2.58 8.59219 2.57812ZM21.4941 9.93937C23.9147 9.93937 25.8778 7.97719 25.8778 5.55562C25.8778 3.13406 23.9156 1.17188 21.4941 1.17188C19.0734 1.17188 17.1103 3.13406 17.1103 5.55562C17.1131 7.97531 19.0744 9.93656 21.4931 9.93937H21.4941ZM21.4941 2.57812C23.1384 2.57812 24.4716 3.91125 24.4716 5.55562C24.4716 7.2 23.1384 8.53313 21.4941 8.53313C19.8497 8.53313 18.5166 7.2 18.5166 5.55562C18.5184 3.91219 19.8506 2.58 21.4941 2.57812ZM28.8966 18.6C28.0734 14.9494 24.8578 12.2634 21.0159 12.2634C20.6194 12.2634 20.2294 12.2925 19.8478 12.3469L19.8909 12.3412C19.845 12.3525 19.8047 12.3675 19.7663 12.3853L19.77 12.3834C19.0659 10.3875 17.1966 8.98312 14.9991 8.98312C12.8109 8.98312 10.9481 10.3753 10.2478 12.3216L10.2366 12.3572C10.2206 12.3534 10.2084 12.3441 10.1925 12.3412C9.85594 12.2916 9.46781 12.2625 9.07219 12.2625C9.07031 12.2625 9.0675 12.2625 9.06563 12.2625C5.22938 12.2794 2.02406 14.9569 1.19812 18.5447L1.18781 18.5991C1.1775 18.6441 1.17188 18.6956 1.17188 18.7491C1.17188 19.1372 1.48688 19.4522 1.875 19.4522C2.20969 19.4522 2.49 19.2178 2.56031 18.9037L2.56125 18.8991C3.25219 15.8925 5.89875 13.6819 9.06469 13.6687H9.06656C9.38063 13.6687 9.68906 13.6912 9.99 13.7344L9.95531 13.7306C9.94781 13.8422 9.92156 13.9481 9.92156 14.0625C9.92719 16.8628 12.1988 19.1306 15 19.1306C17.8013 19.1306 20.0728 16.8628 20.0775 14.0625V14.0616C20.0775 13.9491 20.0513 13.8431 20.0438 13.7316C20.0588 13.7297 20.0728 13.7362 20.0878 13.7325C20.3634 13.6912 20.6822 13.6687 21.0066 13.6687C21.0103 13.6687 21.0131 13.6687 21.0169 13.6687C24.1847 13.6809 26.8313 15.8916 27.5128 18.8541L27.5213 18.8991C27.5925 19.2178 27.8728 19.4513 28.2075 19.4522C28.2609 19.4522 28.3125 19.4456 28.3622 19.4344L28.3575 19.4353C28.6763 19.3641 28.9106 19.0837 28.9106 18.7481C28.9106 18.6947 28.905 18.6431 28.8938 18.5934L28.8947 18.5981L28.8966 18.6ZM15.0009 17.7337C15.0009 17.7337 15.0009 17.7337 15 17.7337C12.9722 17.7337 11.3278 16.0903 11.3278 14.0616C11.3278 12.0328 12.9722 10.3894 15 10.3894C17.0278 10.3894 18.6722 12.0337 18.6722 14.0616C18.6722 14.0616 18.6722 14.0616 18.6722 14.0625C18.6694 16.0894 17.0278 17.7309 15.0009 17.7337Z" fill="#8B87AB"/>
</svg>
